<?xml version="1.0" encoding="UTF-8"?>
<svg width="200" height="200" viewBox="0 0 200 200" xmlns="http://www.w3.org/2000/svg">
    <!-- Background Circle -->
    <circle cx="100" cy="100" r="90" fill="#4a90e2" opacity="0.1"/>
    
    <!-- Document Icon -->
    <path d="M60 40h80c5.523 0 10 4.477 10 10v100c0 5.523-4.477 10-10 10H60c-5.523 0-10-4.477-10-10V50c0-5.523 4.477-10 10-10z" 
          fill="#4a90e2"/>
    
    <!-- Document Lines -->
    <rect x="70" y="70" width="60" height="4" rx="2" fill="white"/>
    <rect x="70" y="85" width="60" height="4" rx="2" fill="white"/>
    <rect x="70" y="100" width="40" height="4" rx="2" fill="white"/>
    
    <!-- Shield Overlay -->
    <path d="M100 30l20 10v20c0 20-10 30-20 40-10-10-20-20-20-40V40l20-10z" 
          fill="#2c3e50" opacity="0.8"/>
    
    <!-- Checkmark -->
    <path d="M90 70l10 10 20-20" 
          stroke="white" 
          stroke-width="4" 
          fill="none" 
          stroke-linecap="round" 
          stroke-linejoin="round"/>
</svg> 